{"asset":{"version":"2.0","generator":"babylon.js glTF exporter for Autodesk MAYA 2022 v20210811.2"},"scene":0,"scenes":[{"nodes":[0,3]}],"nodes":[{"children":[1],"translation":[-0.005156372,0.0416958071,0.0324180536],"rotation":[-0.156428516,0.00136513088,-0.008619097,0.987650752],"name":"CentralIncisor11"},{"children":[2],"name":"polySurface1"},{"mesh":0,"name":"polySurface2"},{"translation":[0.00021329202,0.00190376607,-1.42455774E-05],"scale":[0.444347233,0.444347233,0.444347233],"name":"aligner_locator2"}],"meshes":[{"primitives":[{"attributes":{"POSITION":1,"TANGENT":2,"NORMAL":3,"TEXCOORD_0":4},"indices":0}],"name":"polySurface2"}],"accessors":[{"bufferView":0,"componentType":5123,"count":2904,"type":"SCALAR","name":"accessorIndices"},{"bufferView":1,"componentType":5126,"count":486,"max":[0.0109036053,-0.00562588451,-0.0397816971],"min":[0.000775328139,-0.03487355,-0.0473673269],"type":"VEC3","name":"accessorPositions"},{"bufferView":2,"componentType":5126,"count":486,"type":"VEC4","name":"accessorTangents"},{"bufferView":1,"byteOffset":5832,"componentType":5126,"count":486,"type":"VEC3","name":"accessorNormals"},{"bufferView":3,"componentType":5126,"count":486,"type":"VEC2","name":"accessorUVs"}],"bufferViews":[{"buffer":0,"byteLength":5808,"name":"bufferViewScalar"},{"buffer":0,"byteOffset":5808,"byteLength":11664,"byteStride":12,"name":"bufferViewFloatVec3"},{"buffer":0,"byteOffset":17472,"byteLength":7776,"byteStride":16,"name":"bufferViewFloatVec4"},{"buffer":0,"byteOffset":25248,"byteLength":3888,"byteStride":8,"name":"bufferViewFloatVec2"}],"buffers":[{"uri":"teeth.bin","byteLength":29136}]}